<?xml version="1.0" encoding="utf-8"?>
<!-- Generator: Adobe Illustrator 16.0.0, SVG Export Plug-In . SVG Version: 6.00 Build 0)  -->
<!DOCTYPE svg PUBLIC "-//W3C//DTD SVG 1.1//EN" "http://www.w3.org/Graphics/SVG/1.1/DTD/svg11.dtd">
<svg xmlns="http://www.w3.org/2000/svg" xmlns:xlink="http://www.w3.org/1999/xlink" version="1.1" id="Lantern" x="0px" y="0px" width="512" height="512" viewBox="0 0 144.083 144" enable-background="new 0 0 144.083 144" xml:space="preserve">
<path d="M111.889,62.363c-0.225-6.155-4.623-11.254-10.438-12.574c-0.346-4.271-3.924-7.643-8.281-7.643h-2.123V30.332h-8.961V26.31  c0-5.257-4.277-9.534-9.535-9.534s-9.535,4.277-9.535,9.534v4.022h-8.962v11.814h-2.122c-4.295,0-7.839,3.273-8.271,7.455  c-6.321,0.919-11.232,6.247-11.47,12.762l-13.833,43.37v0.467c0,7.646,5.369,13.412,12.489,13.412h4.985  c0.358,4.257,3.932,7.612,8.28,7.612h56.875c4.348,0,7.922-3.355,8.281-7.612h3.963c7.121,0,12.49-5.766,12.49-13.412v-0.467  L111.889,62.363z M69.017,26.31c0-1.949,1.585-3.534,3.535-3.534c1.949,0,3.535,1.585,3.535,3.534v4.022h-7.07V26.31z   M60.055,36.332h24.993v5.814H60.055V36.332z M49.617,50.462c0-1.276,1.039-2.315,2.316-2.315h2.122h36.993h2.123  c1.275,0,2.314,1.039,2.314,2.315v3.918c0,1.276-1.039,2.314-2.314,2.314H51.933c-1.277,0-2.316-1.038-2.316-2.314V50.462z   M49.617,78.379c0-6.066,2.377-11.58,6.238-15.685h33.392c3.861,4.104,6.238,9.618,6.238,15.685v12.764  c0,5.992-2.318,11.445-6.094,15.534H55.712c-3.777-4.089-6.095-9.542-6.095-15.534V78.379z M35.922,113.612h-5.073  c-4.278,0-6.321-3.537-6.479-6.977l13.814-43.311v-0.467c0-3.442,2.362-6.335,5.548-7.165c0.458,2.864,2.374,5.248,4.969,6.347  c-3.2,4.653-5.083,10.277-5.083,16.339v12.764c0,5.713,1.667,11.043,4.538,15.534h-4.041C40,106.677,36.583,109.684,35.922,113.612z   M103.305,118.91c0,1.276-1.039,2.314-2.316,2.314H44.114c-1.277,0-2.316-1.038-2.316-2.314v-3.918c0-1.276,1.039-2.315,2.316-2.315  h56.875c1.277,0,2.316,1.039,2.316,2.315V118.91z M113.233,113.612h-4.053c-0.66-3.929-4.076-6.936-8.191-6.936h-4.041  c2.871-4.491,4.537-9.821,4.537-15.534V78.379c0-6.062-1.883-11.686-5.084-16.338c2.5-1.059,4.377-3.306,4.922-6.028  c2.682,1.116,4.574,3.764,4.574,6.846v0.467l13.816,43.311C119.553,110.075,117.512,113.612,113.233,113.612z"/>
<path d="M62.552,96.566c0.753,1.079,1.7,2.104,2.815,3.047c1.042,0.882,2.115,1.656,3.191,2.303  c1.036,0.621,2.223,1.237,3.529,1.833c0.383,0.175,0.784,0.262,1.182,0.269c0.041,0.001,0.082,0.002,0.123,0.002  c0.902,0,1.773-0.408,2.352-1.137c0.734-0.929,0.855-2.203,0.307-3.253c-0.836-1.6-1.012-2.587-1.012-3.134  c0-0.188,0.043-0.35,0.139-0.529c0.17-0.315,0.389-0.593,0.67-0.848c0.459-0.419,0.98-0.847,1.547-1.272  c0.689-0.518,1.375-1.07,2.102-1.697c0.756-0.653,1.457-1.358,2.094-2.104c0.758-0.894,1.369-1.962,1.813-3.165  c0.455-1.219,0.686-2.55,0.686-3.955c0-1.623-0.234-3.181-0.697-4.631c-0.461-1.438-1.088-2.73-1.861-3.84  c-0.748-1.076-1.695-2.102-2.813-3.045c-1.033-0.877-2.105-1.651-3.195-2.308c-1.039-0.622-2.227-1.238-3.529-1.831  c-0.369-0.169-0.756-0.256-1.141-0.268c-0.887-0.031-1.804,0.327-2.417,1.038c-0.794,0.922-0.954,2.231-0.403,3.316  c0.833,1.643,1.008,2.628,1.008,3.166c0,0.188-0.042,0.352-0.138,0.529c-0.167,0.312-0.387,0.589-0.671,0.848  c-0.459,0.419-0.979,0.847-1.548,1.272c-0.703,0.528-1.41,1.099-2.1,1.695c-0.752,0.651-1.455,1.357-2.091,2.104  c-0.754,0.889-1.366,1.954-1.818,3.169c-0.453,1.221-0.683,2.551-0.683,3.954c0,1.625,0.235,3.183,0.698,4.631  C61.153,94.167,61.779,95.46,62.552,96.566z M66.3,86.231c0.208-0.558,0.466-1.021,0.764-1.372c0.436-0.511,0.922-1,1.445-1.453  c0.586-0.507,1.185-0.99,1.775-1.434c0.72-0.539,1.39-1.09,1.991-1.639c0.782-0.713,1.426-1.534,1.913-2.439  c0.322-0.6,0.555-1.225,0.693-1.871c0.703,0.6,1.283,1.225,1.727,1.86c0.432,0.619,0.791,1.372,1.068,2.239  c0.273,0.856,0.412,1.8,0.412,2.802c0,0.688-0.104,1.313-0.311,1.867c-0.203,0.554-0.461,1.016-0.758,1.366  c-0.436,0.509-0.922,0.998-1.443,1.45c-0.619,0.533-1.203,1.004-1.783,1.439c-0.717,0.538-1.385,1.088-1.985,1.634  c-0.78,0.711-1.425,1.533-1.911,2.438c-0.324,0.6-0.558,1.228-0.698,1.876c-0.699-0.597-1.28-1.224-1.727-1.864  c-0.43-0.615-0.789-1.367-1.066-2.235c-0.274-0.855-0.413-1.798-0.413-2.802C65.993,87.406,66.097,86.779,66.3,86.231z"/>
</svg>
